<svg width="1200" height="900" viewBox="0 0 1200 900" fill="none" xmlns="http://www.w3.org/2000/svg">
  <rect width="1200" height="900" rx="48" fill="#F7FBFF"/>
  <rect x="60" y="60" width="1080" height="780" rx="36" fill="white"/>
  <rect x="100" y="110" width="1000" height="92" rx="26" fill="#0F4C81"/>
  <text x="140" y="165" fill="white" font-size="34" font-family="Arial" font-weight="700">RUBY Science Academy • Chemistry Result Sheet</text>
  <rect x="100" y="240" width="480" height="180" rx="30" fill="#FFF1EA"/>
  <text x="140" y="300" fill="#FF6B2C" font-size="26" font-family="Arial" font-weight="700">95% Pass Rate</text>
  <text x="140" y="345" fill="#1A1A1A" font-size="62" font-family="Arial" font-weight="800">A/L 2025</text>
  <text x="140" y="390" fill="#62758A" font-size="22" font-family="Arial">Chemistry batch performance snapshot</text>
  <rect x="620" y="240" width="480" height="180" rx="30" fill="#EDF6FF"/>
  <text x="660" y="300" fill="#0F4C81" font-size="26" font-family="Arial" font-weight="700">Top Achievement</text>
  <text x="660" y="345" fill="#1A1A1A" font-size="62" font-family="Arial" font-weight="800">12 Distinctions</text>
  <text x="660" y="390" fill="#62758A" font-size="22" font-family="Arial">District-level results displayed here</text>
  <g fill="#E8F2FF">
    <rect x="100" y="470" width="1000" height="62" rx="20"/>
    <rect x="100" y="560" width="1000" height="62" rx="20"/>
    <rect x="100" y="650" width="1000" height="62" rx="20"/>
  </g>
  <g fill="#0F4C81" font-size="22" font-family="Arial" font-weight="700">
    <text x="140" y="510">Student Name</text>
    <text x="540" y="510">Grade</text>
    <text x="780" y="510">Comment</text>
    <text x="140" y="600">A. Nivetha</text>
    <text x="540" y="600">A</text>
    <text x="780" y="600">Outstanding paper writing</text>
    <text x="140" y="690">K. Yathushan</text>
    <text x="540" y="690">B</text>
    <text x="780" y="690">Excellent practical reasoning</text>
  </g>
</svg>
